<?xml version="1.0" encoding="utf-8"?>
<!-- Generator: Adobe Illustrator 17.0.0, SVG Export Plug-In . SVG Version: 6.00 Build 0)  -->
<!DOCTYPE svg PUBLIC "-//W3C//DTD SVG 1.1//EN" "http://www.w3.org/Graphics/SVG/1.1/DTD/svg11.dtd">
<svg version="1.1" id="Layer_1" xmlns="http://www.w3.org/2000/svg" xmlns:xlink="http://www.w3.org/1999/xlink" x="0px" y="0px"
	 width="180.708px" height="180.709px" viewBox="0 0 180.708 180.709" enable-background="new 0 0 180.708 180.709"
	 xml:space="preserve" xmlns:pulse="-">
<path fill="#040202" d="M163.672,2.126H17.036c-4.1,0-7.827,1.678-10.53,4.381c-2.703,2.702-4.38,6.43-4.38,10.53v146.635
	c0,8.201,6.709,14.911,14.91,14.911h146.636c4.099,0,7.827-1.678,10.529-4.381c2.703-2.703,4.381-6.43,4.381-10.53V17.037
	C178.582,8.835,171.873,2.126,163.672,2.126 M17.036,0h146.636c9.37,0,17.036,7.666,17.036,17.037v146.635
	c0,4.686-1.916,8.946-5.004,12.033c-3.087,3.088-7.346,5.004-12.032,5.004H17.036C7.666,180.709,0,173.042,0,163.672V17.037
	c0-4.686,1.916-8.946,5.003-12.033C8.09,1.916,12.35,0,17.036,0z"/>
<path fill="#040202" d="M152.229,21.584H28.478c-2.052,0-3.917,0.84-5.269,2.192c-1.352,1.352-2.192,3.218-2.192,5.269v123.752
	c0,2.051,0.84,3.917,2.192,5.269c1.352,1.352,3.217,2.192,5.269,2.192h123.751c2.052,0,3.917-0.84,5.27-2.192
	c1.352-1.352,2.192-3.218,2.192-5.269V29.045c0-2.051-0.84-3.917-2.193-5.269C156.146,22.424,154.281,21.584,152.229,21.584
	 M28.478,20.592h123.751c2.325,0,4.439,0.951,5.971,2.483c1.532,1.532,2.483,3.645,2.483,5.97v123.752
	c0,2.325-0.951,4.439-2.483,5.97c-1.532,1.532-3.646,2.483-5.971,2.483H28.478c-2.325,0-4.439-0.951-5.97-2.483
	c-1.532-1.531-2.483-3.645-2.483-5.97V29.045c0-2.325,0.951-4.438,2.483-5.97C24.039,21.543,26.153,20.592,28.478,20.592z"/>
<path fill="#040202" d="M152.229,23.569H28.478c-1.506,0-2.875,0.616-3.868,1.609c-0.993,0.993-1.609,2.362-1.609,3.868v123.751
	c0,1.506,0.616,2.875,1.609,3.868s2.362,1.609,3.868,1.609h123.751c1.506,0,2.876-0.616,3.868-1.609
	c0.993-0.993,1.609-2.362,1.609-3.868V29.045c0-1.506-0.616-2.875-1.609-3.868C155.105,24.185,153.735,23.569,152.229,23.569
	 M28.478,22.576h123.751c1.78,0,3.397,0.728,4.57,1.9c1.172,1.172,1.899,2.79,1.899,4.569v123.751c0,1.779-0.727,3.397-1.899,4.569
	c-1.173,1.173-2.79,1.9-4.57,1.9H28.478c-1.779,0-3.397-0.727-4.569-1.9c-1.172-1.172-1.9-2.79-1.9-4.569V29.045
	c0-1.779,0.728-3.397,1.9-4.569C25.081,23.304,26.699,22.576,28.478,22.576z"/>
<path pulse:initial="true" pulse:state="0" fill-rule="evenodd" clip-rule="evenodd" fill="#FFFFFF" d="M23.001,89.858h134.705V29.045c0-1.506-0.616-2.875-1.609-3.868
	c-0.992-0.993-2.362-1.609-3.868-1.609H28.478c-1.506,0-2.875,0.616-3.868,1.609c-0.993,0.993-1.609,2.362-1.609,3.868V89.858z"/>
<path pulse:state="1" fill-rule="evenodd" clip-rule="evenodd" fill="#FFFFFF" d="M157.706,91.984H23.001v60.812c0,1.506,0.616,2.875,1.609,3.868
	s2.362,1.609,3.868,1.609h123.751c1.506,0,2.876-0.616,3.868-1.609c0.993-0.993,1.609-2.362,1.609-3.868V91.984z"/>
</svg>
