<?xml version="1.0" standalone="no"?>
<!DOCTYPE svg PUBLIC "-//W3C//DTD SVG 20010904//EN"
 "http://www.w3.org/TR/2001/REC-SVG-20010904/DTD/svg10.dtd">
<svg version="1.0" xmlns="http://www.w3.org/2000/svg"
 width="200.000000pt" height="200.000000pt" viewBox="0 0 200.000000 200.000000"
 preserveAspectRatio="xMidYMid meet">
<metadata>
Created by potrace 1.15, written by Peter Selinger 2001-2017
</metadata>
<g transform="translate(0.000000,200.000000) scale(0.100000,-0.100000)"
fill="#000000" stroke="none">
<path d="M1565 1865 c-126 -26 -124 -33 2 -9 46 8 89 14 95 12 6 -2 -48 -14
-121 -27 -73 -13 -135 -20 -138 -17 -4 3 6 6 22 6 16 0 26 3 23 6 -4 3 -28 2
-55 -2 -40 -6 -44 -9 -23 -14 21 -5 17 -8 -23 -14 -27 -4 -51 -5 -55 -2 -3 3
7 6 23 6 16 0 26 3 23 6 -4 3 -28 2 -55 -2 -42 -7 -45 -8 -23 -16 18 -6 15 -6
-15 -3 -22 2 -58 2 -80 -2 -37 -6 -38 -7 -15 -15 18 -6 14 -6 -15 -3 -25 3
-127 -12 -255 -36 -118 -22 -220 -41 -227 -42 -7 0 -10 -4 -7 -8 2 -4 1 -9 -4
-11 -14 -6 -83 -248 -77 -271 4 -14 3 -17 -2 -10 -10 14 -298 -920 -290 -941
3 -6 220 -92 483 -190 391 -145 484 -176 511 -171 24 4 33 11 33 25 0 11 8 27
18 37 10 10 31 65 46 123 15 58 31 122 37 142 5 20 17 39 27 43 9 3 28 15 42
26 20 16 21 18 4 10 -12 -6 -24 -7 -28 -4 -3 4 -13 -2 -20 -13 -9 -11 4 55 29
161 24 99 58 242 76 318 21 89 37 137 46 137 9 0 11 9 7 30 -7 34 -3 36 32 14
13 -9 27 -14 30 -11 3 3 -8 13 -25 23 -17 10 -31 25 -31 34 0 8 29 132 64 275
35 143 60 265 56 270 -4 6 -3 33 3 62 10 46 9 55 -8 73 -10 11 -21 19 -24 19
-3 -1 -55 -11 -116 -24z"/>
</g>
</svg>
